<?xml version="1.0" encoding="UTF-8"?><!DOCTYPE svg PUBLIC "-//W3C//DTD SVG 1.1//EN" "http://www.w3.org/Graphics/SVG/1.1/DTD/svg11.dtd"><svg xmlns="http://www.w3.org/2000/svg" xmlns:xlink="http://www.w3.org/1999/xlink"><symbol id="bug" viewBox="0 0 16 16">
<path fill="#000000" d="M16 9v-1h-3.020c-0.092-1.136-0.497-2.172-1.12-3.004h2.53l1.095-4.379-0.97-0.243-0.905 3.621h-2.729c-0.014-0.011-0.028-0.021-0.042-0.032 0.105-0.305 0.162-0.632 0.162-0.972 0-1.653-1.343-2.992-3-2.992s-3 1.34-3 2.992c0 0.34 0.057 0.667 0.162 0.972-0.014 0.011-0.028 0.021-0.042 0.032h-2.729l-0.905-3.621-0.97 0.243 1.095 4.379h2.53c-0.623 0.832-1.028 1.868-1.12 3.004h-3.020v1h3.021c0.059 0.713 0.242 1.388 0.526 1.996h-1.937l-1.095 4.379 0.97 0.243 0.905-3.621h1.756c0.917 1.219 2.303 1.996 3.854 1.996s2.937-0.777 3.854-1.996h1.756l0.905 3.621 0.97-0.243-1.095-4.379h-1.937c0.283-0.608 0.466-1.283 0.526-1.996h3.021z"/>
</symbol><symbol id="info" viewBox="0 0 16 16">
<path fill="#000000" d="M7 4.75c0-0.412 0.338-0.75 0.75-0.75h0.5c0.412 0 0.75 0.338 0.75 0.75v0.5c0 0.412-0.338 0.75-0.75 0.75h-0.5c-0.412 0-0.75-0.338-0.75-0.75v-0.5z"/>
<path fill="#000000" d="M10 12h-4v-1h1v-3h-1v-1h3v4h1z"/>
<path fill="#000000" d="M8 0c-4.418 0-8 3.582-8 8s3.582 8 8 8 8-3.582 8-8-3.582-8-8-8zM8 14.5c-3.59 0-6.5-2.91-6.5-6.5s2.91-6.5 6.5-6.5 6.5 2.91 6.5 6.5-2.91 6.5-6.5 6.5z"/>
</symbol><symbol id="link" viewBox="0 0 16 16">
<path fill="#000000" d="M6.879 9.934c-0.208 0-0.416-0.079-0.575-0.238-1.486-1.486-1.486-3.905 0-5.392l3-3c0.72-0.72 1.678-1.117 2.696-1.117s1.976 0.397 2.696 1.117c1.486 1.487 1.486 3.905 0 5.392l-1.371 1.371c-0.317 0.317-0.832 0.317-1.149 0s-0.317-0.832 0-1.149l1.371-1.371c0.853-0.853 0.853-2.241 0-3.094-0.413-0.413-0.963-0.641-1.547-0.641s-1.134 0.228-1.547 0.641l-3 3c-0.853 0.853-0.853 2.241 0 3.094 0.317 0.317 0.317 0.832 0 1.149-0.159 0.159-0.367 0.238-0.575 0.238z"/>
<path fill="#000000" d="M4 15.813c-1.018 0-1.976-0.397-2.696-1.117-1.486-1.486-1.486-3.905 0-5.392l1.371-1.371c0.317-0.317 0.832-0.317 1.149 0s0.317 0.832 0 1.149l-1.371 1.371c-0.853 0.853-0.853 2.241 0 3.094 0.413 0.413 0.962 0.641 1.547 0.641s1.134-0.228 1.547-0.641l3-3c0.853-0.853 0.853-2.241 0-3.094-0.317-0.317-0.317-0.832 0-1.149s0.832-0.317 1.149 0c1.486 1.486 1.486 3.905 0 5.392l-3 3c-0.72 0.72-1.678 1.117-2.696 1.117z"/>
</symbol><symbol id="new-tab" viewBox="0 0 16 16">
<path fill="#000000" d="M3 1v12h12v-12h-12zM14 12h-10v-10h10v10zM2 14v-10.5l-1-1v12.5h12.5l-1-1h-10.5z"/>
<path fill="#000000" d="M5.5 4l2.5 2.5-3 3 1.5 1.5 3-3 2.5 2.5v-6.5z"/>
</symbol><symbol id="rocket" viewBox="0 0 16 16">
<path fill="#000000" d="M11 1l-5 5h-3l-3 4c0 0 3.178-0.885 5.032-0.47l-5.032 6.47 6.592-5.127c0.919 2.104-0.592 5.127-0.592 5.127l4-3v-3l5-5 1-5-5 1z"/>
</symbol><symbol id="warning" viewBox="0 0 16 16">
<path fill="#000000" d="M8 1.45l6.705 13.363h-13.409l6.705-13.363zM8 0c-0.345 0-0.69 0.233-0.951 0.698l-6.829 13.611c-0.523 0.93-0.078 1.691 0.989 1.691h13.583c1.067 0 1.512-0.761 0.989-1.691h0l-6.829-13.611c-0.262-0.465-0.606-0.698-0.951-0.698v0z"/>
<path fill="#000000" d="M9 13c0 0.552-0.448 1-1 1s-1-0.448-1-1c0-0.552 0.448-1 1-1s1 0.448 1 1z"/>
<path fill="#000000" d="M8 11c-0.552 0-1-0.448-1-1v-3c0-0.552 0.448-1 1-1s1 0.448 1 1v3c0 0.552-0.448 1-1 1z"/>
</symbol></svg>