<?xml version="1.0" encoding="UTF-8"?><!DOCTYPE svg PUBLIC "-//W3C//DTD SVG 1.1//EN" "http://www.w3.org/Graphics/SVG/1.1/DTD/svg11.dtd"><svg xmlns="http://www.w3.org/2000/svg" xmlns:xlink="http://www.w3.org/1999/xlink"><symbol id="link" viewBox="0 0 16 16">
<path fill="#000000" d="M6.879 9.934c-0.208 0-0.416-0.079-0.575-0.238-1.486-1.486-1.486-3.905 0-5.392l3-3c0.72-0.72 1.678-1.117 2.696-1.117s1.976 0.397 2.696 1.117c1.486 1.487 1.486 3.905 0 5.392l-1.371 1.371c-0.317 0.317-0.832 0.317-1.149 0s-0.317-0.832 0-1.149l1.371-1.371c0.853-0.853 0.853-2.241 0-3.094-0.413-0.413-0.963-0.641-1.547-0.641s-1.134 0.228-1.547 0.641l-3 3c-0.853 0.853-0.853 2.241 0 3.094 0.317 0.317 0.317 0.832 0 1.149-0.159 0.159-0.367 0.238-0.575 0.238z"/>
<path fill="#000000" d="M4 15.813c-1.018 0-1.976-0.397-2.696-1.117-1.486-1.486-1.486-3.905 0-5.392l1.371-1.371c0.317-0.317 0.832-0.317 1.149 0s0.317 0.832 0 1.149l-1.371 1.371c-0.853 0.853-0.853 2.241 0 3.094 0.413 0.413 0.962 0.641 1.547 0.641s1.134-0.228 1.547-0.641l3-3c0.853-0.853 0.853-2.241 0-3.094-0.317-0.317-0.317-0.832 0-1.149s0.832-0.317 1.149 0c1.486 1.486 1.486 3.905 0 5.392l-3 3c-0.72 0.72-1.678 1.117-2.696 1.117z"/>
</symbol><symbol id="new-tab" viewBox="0 0 16 16">
<path fill="#000000" d="M3 1v12h12v-12h-12zM14 12h-10v-10h10v10zM2 14v-10.5l-1-1v12.5h12.5l-1-1h-10.5z"/>
<path fill="#000000" d="M5.5 4l2.5 2.5-3 3 1.5 1.5 3-3 2.5 2.5v-6.5z"/>
</symbol><symbol id="rocket" viewBox="0 0 16 16">
<path fill="#000000" d="M11 1l-5 5h-3l-3 4c0 0 3.178-0.885 5.032-0.47l-5.032 6.47 6.592-5.127c0.919 2.104-0.592 5.127-0.592 5.127l4-3v-3l5-5 1-5-5 1z"/>
</symbol></svg>